<svg
   viewBox="0 0 200 30.856577"
   height="30.856577"
   width="200"
   version="1.1"
   id="svg8"
   sodipodi:docname="svgexport-1.svg"
   inkscape:version="1.1 (c68e22c387, 2021-05-23)"
   xmlns:inkscape="http://www.inkscape.org/namespaces/inkscape"
   xmlns:sodipodi="http://sodipodi.sourceforge.net/DTD/sodipodi-0.dtd"
   xmlns="http://www.w3.org/2000/svg"
   xmlns:svg="http://www.w3.org/2000/svg">
  <defs
     id="defs12" />
  <sodipodi:namedview
     id="namedview10"
     pagecolor="#ffffff"
     bordercolor="#666666"
     borderopacity="1.0"
     inkscape:pageshadow="2"
     inkscape:pageopacity="0.0"
     inkscape:pagecheckerboard="0"
     showgrid="false"
     fit-margin-top="0"
     fit-margin-left="0"
     fit-margin-right="0"
     fit-margin-bottom="0"
     inkscape:zoom="0.66405407"
     inkscape:cx="622.69026"
     inkscape:cy="125.74277"
     inkscape:window-width="1920"
     inkscape:window-height="1017"
     inkscape:window-x="-8"
     inkscape:window-y="-8"
     inkscape:window-maximized="1"
     inkscape:current-layer="svg8" />
  <g
     id="g832"
     transform="scale(0.12342631)">
    <path
       fill="#0d3880"
       d="m 641,165.11 25.47,-14.89 c 5.4,14 16,23.09 34.75,23.09 17.92,0 24.18,-7.55 24.18,-16 0,-11.23 -10.14,-15.54 -32.59,-22 -23.1,-6.69 -45.55,-15.33 -45.55,-44 0,-27.46 26.21,-43.73 50.83,-43.73 23.79,0 42.74,11.48 52.78,31.65 l -25,14.46 C 720.48,82.25 711.97,76.5 698.13,76.5 c -11.42,0 -21,6.29 -21,14 0,9.28 5.83,13.17 28.71,20.08 24,7.55 49.43,15.54 49.43,46.41 0,28.27 -22.67,45.54 -54.83,45.54 -30.87,0 -51.15,-14.89 -59.36,-37.34 M 765.87,91.5 V 54.4 h 27.84 v 37.1 h 24.39 v 26.77 h -24.39 v 44.9 c 0,11.65 8.42,11.87 24.39,11 v 25.26 c -39.06,4.32 -52.23,-7.13 -52.23,-36.26 z m 128.51,-2.15 v 31.08 c -14.46,-1.73 -32.81,4.75 -32.81,27.41 v 51.59 H 833.73 V 91.5 h 27.84 v 18.57 c 5.61,-14.68 19.21,-20.72 32.81,-20.72 m 87.93,45.97 c -3.46,-15.54 -15.11,-21.8 -26.77,-21.8 -14.89,0 -25,8 -28.27,21.8 z m -24.18,41.88 c 10.8,0 19.43,-4.54 24.18,-10.8 l 22.45,12.95 c -10.15,14.68 -26.34,23.1 -47.06,23.1 -36.26,0 -59.14,-24.82 -59.14,-57 0,-32.18 23.1,-57 57,-57 32,0 54.61,25.26 54.61,57 a 64.11,64.11 0 0 1 -1.08,11.44 H 927.7 c 3.89,14.24 15.76,20.29 30.43,20.29 m 144.06,-41.86 c -3.46,-15.54 -15.11,-21.8 -26.77,-21.8 -14.89,0 -25,8 -28.27,21.8 z M 1078,177.2 c 10.8,0 19.43,-4.54 24.18,-10.8 l 22.45,12.95 c -10.15,14.68 -26.34,23.1 -47.06,23.1 -36.26,0 -59.14,-24.82 -59.14,-57 0,-32.18 23.1,-57 57,-57 31.95,0 54.61,25.26 54.61,57 a 64.11,64.11 0 0 1 -1.08,11.44 h -81.37 c 3.89,14.24 15.76,20.29 30.43,20.29 M 1142.13,91.5 V 54.4 H 1170 v 37.1 h 24.39 v 26.77 H 1170 v 44.9 c 0,11.65 8.42,11.87 24.39,11 v 25.26 c -39.07,4.32 -52.23,-7.13 -52.23,-36.26 V 91.5 Z M 482,145.47 c 0,-17.49 -12.73,-29.79 -29.36,-29.79 -16.4,0 -29.13,12.3 -29.13,29.79 0,17.49 12.73,29.78 29.13,29.78 16.63,0 29.36,-12.3 29.36,-29.78 m -86.34,0 c 0,-32.16 25.26,-57 57,-57 31.74,0 57.21,24.83 57.21,57 0,32.17 -25.47,57 -57.21,57 -31.74,0 -57,-24.82 -57,-57 m 211.06,0 c 0,-18.14 -12.74,-30.44 -30,-30.44 -17.06,0 -29.79,12.3 -29.79,30.44 0,18.14 12.73,30.43 29.79,30.43 17.26,0 30,-12.3 30,-30.43 m 27.84,0 c 0,32.16 -23.74,57 -52.67,57 -15.75,0 -27.19,-5.83 -35,-15.76 v 12.74 H 519.08 V 48.34 h 27.85 v 55.9 c 7.77,-9.93 19.21,-15.76 35,-15.76 28.93,0 52.67,24.83 52.67,57 M 387.12,48.37 v 104 a 56.2,56.2 0 0 1 -3.06,18.88 43.68,43.68 0 0 1 -17.24,22.13 c 0,0 -0.05,0.07 -0.07,0.07 -8.68,6.59 -21.42,8.91 -30.92,8.91 -24.81,0 -45.64,-10.85 -52.15,-31.71 -2,-6.34 -2.8,-14.3 -2.8,-26.17 h 30.17 c -0.19,12.35 1.41,21.61 10.71,26.89 8.42,4.79 26.68,4.52 33,-9.08 3.72,-8 2.77,-21.25 2.77,-30.08 V 48.37 Z M 0,125 A 125,125 0 1 1 125,250 125,125 0 0 1 0,125"
       id="path2" />
    <path
       fill="#ffffff"
       d="m 128,47.68 a 7.81,7.81 0 1 1 7.8,7.8 7.81,7.81 0 0 1 -7.8,-7.8 m 24.26,26.26 a 8.62,8.62 0 1 1 8.61,8.61 8.62,8.62 0 0 1 -8.61,-8.61 m -24.26,0 a 7.81,7.81 0 1 1 7.8,7.81 7.8,7.8 0 0 1 -7.8,-7.81 m 50.14,26.35 a 9.67,9.67 0 1 1 9.68,9.67 9.66,9.66 0 0 1 -9.68,-9.67 m -25.88,-0.08 a 8.62,8.62 0 1 1 8.61,8.6 8.62,8.62 0 0 1 -8.61,-8.6 m -24.26,0 a 7.81,7.81 0 1 1 7.8,7.81 7.8,7.8 0 0 1 -7.8,-7.81 m -23.26,0 a 6.84,6.84 0 1 1 6.83,6.83 6.83,6.83 0 0 1 -6.83,-6.83 m -19.36,0 a 5.86,5.86 0 1 1 5.85,5.86 5.86,5.86 0 0 1 -5.85,-5.86 m -18.46,0 a 4.88,4.88 0 1 1 4.88,4.89 4.88,4.88 0 0 1 -4.88,-4.89 m -15.63,0 a 3.92,3.92 0 1 1 3.92,3.9 3.91,3.91 0 0 1 -3.92,-3.9 m -14.78,0 a 2.93,2.93 0 1 1 2.93,2.92 2.92,2.92 0 0 1 -2.93,-2.92 m -12.51,0 a 2,2 0 1 1 2,2 2,2 0 0 1 -2,-2 m 154.14,26.34 a 9.67,9.67 0 1 1 9.68,9.67 9.68,9.68 0 0 1 -9.68,-9.67 m -25.88,-0.08 a 8.62,8.62 0 1 1 8.61,8.62 8.62,8.62 0 0 1 -8.61,-8.62 m -24.26,0 a 7.81,7.81 0 1 1 7.8,7.81 7.8,7.8 0 0 1 -7.8,-7.81 m -23.26,0 a 6.84,6.84 0 1 1 6.83,6.84 6.82,6.82 0 0 1 -6.83,-6.84 m -19.36,0 a 5.86,5.86 0 1 1 5.85,5.86 5.85,5.85 0 0 1 -5.85,-5.86 m -18.46,0 a 4.88,4.88 0 1 1 4.88,4.89 4.87,4.87 0 0 1 -4.88,-4.89 m -15.63,0 a 3.92,3.92 0 1 1 3.92,3.9 3.91,3.91 0 0 1 -3.92,-3.9 m -14.78,0 a 2.93,2.93 0 1 1 2.93,2.92 2.92,2.92 0 0 1 -2.93,-2.92 m -12.51,0 a 2,2 0 1 1 2,2 2,2 0 0 1 -2,-2 m 180.67,0.26 a 10.6,10.6 0 1 1 10.6,10.59 10.61,10.61 0 0 1 -10.6,-10.59 m -26.53,26.08 a 9.67,9.67 0 1 1 9.68,9.68 9.67,9.67 0 0 1 -9.68,-9.68 m -25.88,-0.07 a 8.62,8.62 0 1 1 8.61,8.61 8.62,8.62 0 0 1 -8.61,-8.61 m -24.26,0 a 7.81,7.81 0 1 1 7.8,7.81 7.81,7.81 0 0 1 -7.8,-7.81 m -23.26,0 a 6.84,6.84 0 1 1 6.83,6.83 6.84,6.84 0 0 1 -6.83,-6.83 m -19.36,0 a 5.86,5.86 0 1 1 5.85,5.86 5.85,5.85 0 0 1 -5.85,-5.86 m -18.46,0 a 4.88,4.88 0 1 1 4.88,4.87 4.87,4.87 0 0 1 -4.88,-4.87 m -15.63,0 a 3.92,3.92 0 1 1 3.92,3.91 3.92,3.92 0 0 1 -3.92,-3.91 m -14.78,0 a 2.93,2.93 0 1 1 2.93,2.93 2.93,2.93 0 0 1 -2.93,-2.93 m -12.51,0 a 2,2 0 1 1 3.9,0 2,2 0 0 1 -3.9,0 M 152.26,179 a 8.62,8.62 0 1 1 8.61,8.61 8.62,8.62 0 0 1 -8.61,-8.61 M 128,179 a 7.81,7.81 0 1 1 7.8,7.81 A 7.82,7.82 0 0 1 128,179 m 0,26.26 a 7.81,7.81 0 1 1 7.8,7.82 7.8,7.8 0 0 1 -7.8,-7.82"
       id="path4" />
    <path
       fill="#0d3880"
       d="m 1296.73,172.62 q 0,13.14 -5.61,20.49 -5.61,7.35 -15.67,7.36 a 17.08,17.08 0 0 1 -14.2,-6.83 l -0.66,5.81 h -13.14 v -77.62 h 14.61 v 27.84 a 16.64,16.64 0 0 1 13.29,-5.91 q 10,0 15.69,7.36 5.69,7.36 5.69,20.69 z m -14.61,-1.06 q 0,-8.3 -2.62,-12.11 a 8.91,8.91 0 0 0 -7.84,-3.81 q -7,0 -9.6,5.71 v 21.58 q 2.68,5.76 9.7,5.76 7.02,0 9.3,-7 a 35.93,35.93 0 0 0 1.06,-10.13 z m 40.88,7.22 10.11,-34 h 15.67 l -22,63.17 -1.21,2.89 q -4.9,10.71 -16.17,10.71 a 23,23 0 0 1 -6.47,-1 v -11.04 l 2.23,0.05 a 12.06,12.06 0 0 0 6.19,-1.26 8.27,8.27 0 0 0 3.2,-4.2 l 1.72,-4.49 -19.15,-54.84 h 15.72 z m 96.4,1.37 a 7.81,7.81 0 0 0 -3,-6.6 q -3,-2.3 -10.92,-4.85 a 76,76 0 0 1 -12.48,-5 q -12.54,-6.76 -12.54,-18.24 a 17.74,17.74 0 0 1 3.37,-10.64 21.91,21.91 0 0 1 9.65,-7.3 36.33,36.33 0 0 1 14.12,-2.63 33,33 0 0 1 14,2.86 22.33,22.33 0 0 1 9.58,8.06 21.11,21.11 0 0 1 3.41,11.82 h -15.16 a 9.9,9.9 0 0 0 -3.19,-7.86 c -2.12,-1.86 -5.1,-2.8 -8.94,-2.8 -3.84,0 -6.59,0.78 -8.64,2.35 a 7.4,7.4 0 0 0 -3.08,6.19 c 0,2.39 1.2,4.4 3.61,6 a 40.48,40.48 0 0 0 10.64,4.55 q 12.93,3.9 18.85,9.66 a 19.22,19.22 0 0 1 5.91,14.35 q 0,9.55 -7.23,15 -7.23,5.45 -19.45,5.44 a 37.63,37.63 0 0 1 -15.47,-3.11 24.47,24.47 0 0 1 -10.64,-8.52 21.8,21.8 0 0 1 -3.66,-12.53 h 15.21 q 0,12.18 14.56,12.18 c 3.6,0 6.42,-0.73 8.44,-2.2 a 7.16,7.16 0 0 0 3.05,-6.18 z m 68.92,-12.58 h -29.11 v 19.7 h 34.17 v 12.18 h -49.33 v -73.58 h 49.22 v 12.28 h -34.06 v 17.54 h 29.11 z m 58.16,0 h -29.11 v 19.7 h 34.16 v 12.18 h -49.32 v -73.58 h 49.22 v 12.28 h -34.06 v 17.54 h 29.11 z m 36.93,2.37 -7.89,8.49 v 21 h -15.16 v -73.56 h 15.16 v 33.36 l 6.68,-9.15 18.8,-24.21 h 18.64 l -26.12,32.7 26.88,40.88 h -18 z"
       id="path6" />
  </g>
</svg>
